<svg xmlns="http://www.w3.org/2000/svg" viewBox="0 0 136.2 119.93">
  <defs>
    <style>
      .cls-1 {
        fill: #696969;
      }
    </style>
  </defs>
  <title>Asset 1@1x</title>
  <g id="Layer_2" data-name="Layer 2">
    <g id="Layer_1-2" data-name="Layer 1">
      <g>
        <path class="cls-1" d="M30.68,85.38a3.73,3.73,0,1,0,0,7.46H55.35a3.73,3.73,0,0,0,0-7.46Z"/>
        <path class="cls-1" d="M30.68,34.55H48.15A39.71,39.71,0,0,1,49,27.1H30.68a3.73,3.73,0,1,0,0,7.45Z"/>
        <path class="cls-1" d="M30.68,46.52a3.73,3.73,0,0,0,0,7.46H53a37.94,37.94,0,0,1-3.17-7.46Z"/>
        <path class="cls-1" d="M63.34,66H30.68a3.73,3.73,0,0,0,0,7.46H80.74A38.44,38.44,0,0,1,63.34,66Z"/>
        <path class="cls-1" d="M108,106.13a4.51,4.51,0,0,1-4.51,4.5H13.8a4.51,4.51,0,0,1-4.51-4.5V16.49A4.52,4.52,0,0,1,13.8,12H56a39.21,39.21,0,0,1,9.68-9.29H13.8A13.8,13.8,0,0,0,0,16.49v89.64a13.81,13.81,0,0,0,13.8,13.8h89.64a13.81,13.81,0,0,0,13.8-13.8V79.93L108,70.64Z"/>
        <path class="cls-1" d="M134.68,73.56,116.54,55.42,116,55a35,35,0,1,0-8.57,8.59l.38.58,18.15,18.14a5.2,5.2,0,0,0,7.33,0l1.44-1.44a5.19,5.19,0,0,0,0-7.34ZM106.39,54.1a27,27,0,0,1-38.22,0,27.84,27.84,0,0,1-3.06-3.7H88.58a5,5,0,1,0,0-10H60.8A27.19,27.19,0,0,1,60.26,35a25.79,25.79,0,0,1,.37-3.65H88.58a5,5,0,1,0,0-10H64.1A27,27,0,1,1,106.39,54.1Z"/>
      </g>
    </g>
  </g>
</svg>
