<svg xmlns="http://www.w3.org/2000/svg" viewBox="0 0 22.57 22.57">
  <defs>
    <style>
      .cls-1 {
        fill: #231f20;
      }
    </style>
  </defs>
  <title>more@1x</title>
  <g id="Layer_2" data-name="Layer 2">
    <g id="Layer_1-2" data-name="Layer 1">
      <g>
        <path class="cls-1" d="M11.29,0A11.29,11.29,0,1,0,22.57,11.29,11.28,11.28,0,0,0,11.29,0Zm0,20.76a9.48,9.48,0,1,1,9.47-9.47A9.47,9.47,0,0,1,11.29,20.76Z"/>
        <path class="cls-1" d="M8.28,4.76A5.08,5.08,0,0,1,11.11,4a6.15,6.15,0,0,1,3.67,1.06,3.6,3.6,0,0,1,1.46,3.12,3.48,3.48,0,0,1-.64,2.14,7.23,7.23,0,0,1-1.42,1.35l-.69.54a2,2,0,0,0-.75,1,4.45,4.45,0,0,0-.13,1.16H10a7.63,7.63,0,0,1,.31-2.28,4,4,0,0,1,1.3-1.45l.71-.56a2.4,2.4,0,0,0,.57-.58,2,2,0,0,0,.39-1.18A2.29,2.29,0,0,0,12.81,7a1.79,1.79,0,0,0-1.58-.61,1.74,1.74,0,0,0-1.6.75A2.84,2.84,0,0,0,9.16,8.7H6.33A4.55,4.55,0,0,1,8.28,4.76Zm1.62,11h2.92v2.83H9.9Z"/>
      </g>
    </g>
  </g>
</svg>
